<svg width="21" height="18" viewBox="0 0 21 18" fill="none" xmlns="http://www.w3.org/2000/svg">
<path d="M19.16 2.00001C18.1 0.93722 16.6948 0.288553 15.1984 0.171183C13.7019 0.0538127 12.2128 0.475479 11 1.36001C9.72769 0.41365 8.14402 -0.0154759 6.56795 0.15905C4.99188 0.333576 3.54047 1.09879 2.506 2.3006C1.47154 3.5024 0.930854 5.05153 0.992833 6.63603C1.05481 8.22052 1.71485 9.72268 2.84003 10.84L9.05003 17.06C9.57005 17.5718 10.2704 17.8586 11 17.8586C11.7296 17.8586 12.43 17.5718 12.95 17.06L19.16 10.84C20.3276 9.66528 20.983 8.07629 20.983 6.42001C20.983 4.76374 20.3276 3.17475 19.16 2.00001ZM17.75 9.46001L11.54 15.67C11.4694 15.7414 11.3853 15.798 11.2926 15.8367C11.1999 15.8753 11.1005 15.8952 11 15.8952C10.8996 15.8952 10.8002 15.8753 10.7075 15.8367C10.6148 15.798 10.5307 15.7414 10.46 15.67L4.25003 9.43001C3.46579 8.62836 3.02664 7.55148 3.02664 6.43001C3.02664 5.30855 3.46579 4.23167 4.25003 3.43001C5.04919 2.641 6.127 2.19858 7.25003 2.19858C8.37306 2.19858 9.45088 2.641 10.25 3.43001C10.343 3.52374 10.4536 3.59814 10.5755 3.6489C10.6973 3.69967 10.828 3.72581 10.96 3.72581C11.092 3.72581 11.2227 3.69967 11.3446 3.6489C11.4665 3.59814 11.5771 3.52374 11.67 3.43001C12.4692 2.641 13.547 2.19858 14.67 2.19858C15.7931 2.19858 16.8709 2.641 17.67 3.43001C18.4651 4.22116 18.9186 5.2922 18.9336 6.4137C18.9485 7.53519 18.5237 8.61795 17.75 9.43001V9.46001Z" fill="white"/>
</svg>
