<svg width="16" height="20" viewBox="0 0 16 20" fill="none" xmlns="http://www.w3.org/2000/svg">
<path d="M3.31543 19.1816H12.6846C14.5742 19.1816 15.5498 18.1885 15.5498 16.29V8.42383H8.95801C7.85938 8.42383 7.33203 7.89648 7.33203 6.79785V0.135742H3.31543C1.43457 0.135742 0.450195 1.12891 0.450195 3.03613V16.29C0.450195 18.1885 1.43457 19.1816 3.31543 19.1816ZM9.125 7.14062H15.4619C15.4092 6.73633 15.1191 6.3584 14.6621 5.89258L9.85449 1.02344C9.41504 0.575195 9.01953 0.276367 8.61523 0.223633V6.63086C8.62402 6.97363 8.79102 7.14062 9.125 7.14062ZM4.58984 12.3174C4.21191 12.3174 3.93945 12.0449 3.93945 11.6934C3.93945 11.3418 4.21191 11.0693 4.58984 11.0693H11.4365C11.7969 11.0693 12.0781 11.3418 12.0781 11.6934C12.0781 12.0449 11.7969 12.3174 11.4365 12.3174H4.58984ZM4.58984 15.6133C4.21191 15.6133 3.93945 15.3408 3.93945 14.9893C3.93945 14.6377 4.21191 14.3652 4.58984 14.3652H11.4365C11.7969 14.3652 12.0781 14.6377 12.0781 14.9893C12.0781 15.3408 11.7969 15.6133 11.4365 15.6133H4.58984Z" fill="white" fill-opacity="0.6"/>
</svg>
