<svg width="107" height="103" viewBox="0 0 107 103" fill="none" xmlns="http://www.w3.org/2000/svg">
<g filter="url(#filter0_d_1_2487)">
<path d="M17 20.198C17 15.4312 20.3646 11.3271 25.0388 10.3922L65.0388 2.39223C71.2268 1.15465 77 5.88758 77 12.198V39.802C77 44.5688 73.6354 48.6729 68.9612 49.6078L28.9612 57.6078C22.7732 58.8454 17 54.1124 17 47.802V20.198Z" fill="url(#paint0_linear_1_2487)"/>
<path d="M17.5 20.198C17.5 15.6696 20.6964 11.7706 25.1369 10.8825L65.1369 2.88252C71.0154 1.70682 76.5 6.2031 76.5 12.198V39.802C76.5 44.3304 73.3036 48.2294 68.8631 49.1175L28.8631 57.1175C22.9846 58.2932 17.5 53.7969 17.5 47.802V20.198Z" stroke="url(#paint1_linear_1_2487)" stroke-opacity="0.6" style="mix-blend-mode:overlay"/>
</g>
<g clip-path="url(#clip0_1_2487)">
<path d="M38.3746 38.5622C41.0455 38.5622 43.2712 36.5244 43.6751 33.8503H44.9858C45.2826 34.4694 45.9091 34.8993 46.6345 34.8993C47.6484 34.8993 48.4645 34.048 48.4645 32.999C48.4645 32.5347 48.2996 32.1048 48.0276 31.7695L52.0751 27.2553L52.3883 28.0894C50.7561 29.0438 49.6515 30.8752 49.6515 32.9647C49.6515 36.0601 52.0586 38.5708 55.0344 38.5708C57.9938 38.5708 60.3926 36.0601 60.3926 32.9647C60.3926 29.8692 57.9938 27.3671 55.0344 27.3671C54.581 27.3671 54.1359 27.4273 53.7155 27.5391L51.3826 21.374C51.2178 20.9269 50.921 20.7377 50.4017 20.7377H47.9287C47.5247 20.7377 47.195 21.0817 47.195 21.503C47.195 21.9157 47.5247 22.2596 47.9287 22.2596H50.1131C50.1873 22.2596 50.2038 22.2768 50.2286 22.3284L51.5475 25.8366L44.2192 26.92L43.1393 24.8134H44.0461C44.45 24.8134 44.7715 24.478 44.7715 24.0567C44.7715 23.6354 44.4417 23.2915 44.0461 23.2915H40.5179C40.1222 23.2915 39.7925 23.6354 39.7925 24.0567C39.7925 24.478 40.114 24.8134 40.5179 24.8134H41.5648L42.7189 27.1263L41.5318 28.4333C40.6498 27.7626 39.5534 27.3671 38.3746 27.3671C35.3988 27.3671 33 29.8692 33 32.9647C33 36.0601 35.4071 38.5622 38.3746 38.5622ZM46.6345 31.0988C46.5438 31.0988 46.4614 31.1074 46.3707 31.116L44.8951 28.2355L50.0967 27.4703L46.7746 31.0988C46.7251 31.0988 46.6839 31.0988 46.6345 31.0988ZM43.7246 32.4316C43.6174 31.2966 43.1888 30.2562 42.5375 29.4221L43.4031 28.4849L45.1259 31.9242C45.0188 32.079 44.9446 32.251 44.8869 32.4316H43.7246ZM38.3746 37.0317C36.2149 37.0317 34.4838 35.226 34.4838 32.9647C34.4838 30.7205 36.2231 28.9062 38.3746 28.9062C39.166 28.9062 39.8914 29.147 40.5014 29.5597L38.5065 31.7523C38.4653 31.7437 38.4241 31.7437 38.3746 31.7437C37.7234 31.7437 37.2123 32.2682 37.2041 32.9647C37.1959 33.6439 37.7152 34.1856 38.3746 34.1856C38.6879 34.1856 38.9764 34.0566 39.1825 33.8503H42.1748C41.7956 35.6731 40.2376 37.0317 38.3746 37.0317ZM55.0344 37.0317C52.8747 37.0317 51.1353 35.226 51.1353 32.9647C51.1353 31.5287 51.8525 30.2648 52.9324 29.5425L53.9958 32.38C53.9133 32.5519 53.8556 32.7497 53.8556 32.9647C53.8474 33.6439 54.3667 34.1856 55.0344 34.1856C55.6856 34.1856 56.1967 33.6439 56.1967 32.9647C56.1967 32.3886 55.834 31.9156 55.3229 31.7781L54.2678 28.9836C54.5151 28.932 54.7706 28.9062 55.0344 28.9062C57.1777 28.9062 58.9253 30.7291 58.9253 32.9647C58.9253 35.2174 57.1777 37.0317 55.0344 37.0317ZM39.7678 32.4316L41.5071 30.5485C41.8863 31.0816 42.1501 31.7265 42.2408 32.4316H39.7678ZM46.6427 33.6095C46.3047 33.6095 46.0409 33.3344 46.0409 33.0162C46.0409 32.6723 46.313 32.38 46.6427 32.38C46.9724 32.38 47.228 32.6637 47.228 33.0162C47.228 33.343 46.9724 33.6095 46.6427 33.6095Z" fill="white"/>
</g>
<defs>
<filter id="filter0_d_1_2487" x="-13" y="-7.80536" width="120" height="115.611" filterUnits="userSpaceOnUse" color-interpolation-filters="sRGB">
<feFlood flood-opacity="0" result="BackgroundImageFix"/>
<feColorMatrix in="SourceAlpha" type="matrix" values="0 0 0 0 0 0 0 0 0 0 0 0 0 0 0 0 0 0 127 0" result="hardAlpha"/>
<feOffset dy="20"/>
<feGaussianBlur stdDeviation="15"/>
<feComposite in2="hardAlpha" operator="out"/>
<feColorMatrix type="matrix" values="0 0 0 0 0.0640972 0 0 0 0 0.0794837 0 0 0 0 0.108333 0 0 0 0.6 0"/>
<feBlend mode="normal" in2="BackgroundImageFix" result="effect1_dropShadow_1_2487"/>
<feBlend mode="normal" in="SourceGraphic" in2="effect1_dropShadow_1_2487" result="shape"/>
</filter>
<linearGradient id="paint0_linear_1_2487" x1="20" y1="-3.18769e-07" x2="61.7906" y2="81.0429" gradientUnits="userSpaceOnUse">
<stop stop-color="#34C8E8"/>
<stop offset="1" stop-color="#4E4AF2"/>
</linearGradient>
<linearGradient id="paint1_linear_1_2487" x1="17" y1="0" x2="51.0751" y2="72.2302" gradientUnits="userSpaceOnUse">
<stop stop-color="white"/>
<stop offset="1"/>
</linearGradient>
<clipPath id="clip0_1_2487">
<rect width="28" height="28" fill="white" transform="translate(33 16)"/>
</clipPath>
</defs>
</svg>
