<svg width="390" height="103" viewBox="0 0 390 103" fill="none" xmlns="http://www.w3.org/2000/svg">
<g clip-path="url(#clip0_1_2461)">
<g filter="url(#filter0_b_1_2461)">
<path d="M0 20L390 0V53.5C390 81.1142 367.614 103.5 340 103.5H50C22.3858 103.5 0 81.1142 0 53.5V20Z" fill="url(#paint0_linear_1_2461)" fill-opacity="0.4"/>
<path d="M1 53.5V20.95L389 1.0526V53.5C389 80.562 367.062 102.5 340 102.5H50C22.938 102.5 1 80.562 1 53.5Z" stroke="url(#paint1_linear_1_2461)" stroke-opacity="0.2" stroke-width="2" style="mix-blend-mode:overlay"/>
</g>
<path d="M30.3746 47.5623C33.0455 47.5623 35.2712 45.5244 35.6751 42.8503H36.9858C37.2826 43.4694 37.9091 43.8994 38.6345 43.8994C39.6484 43.8994 40.4645 43.0481 40.4645 41.9991C40.4645 41.5348 40.2996 41.1049 40.0276 40.7695L44.0751 36.2554L44.3883 37.0894C42.7561 38.0438 41.6515 39.8753 41.6515 41.9647C41.6515 45.0601 44.0586 47.5709 47.0344 47.5709C49.9938 47.5709 52.3926 45.0601 52.3926 41.9647C52.3926 38.8693 49.9938 36.3672 47.0344 36.3672C46.581 36.3672 46.1359 36.4273 45.7155 36.5391L43.3826 30.3741C43.2178 29.927 42.921 29.7378 42.4017 29.7378H39.9287C39.5247 29.7378 39.195 30.0817 39.195 30.5031C39.195 30.9158 39.5247 31.2597 39.9287 31.2597H42.1131C42.1873 31.2597 42.2038 31.2769 42.2286 31.3285L43.5475 34.8366L36.2192 35.92L35.1393 33.8134H36.0461C36.45 33.8134 36.7715 33.4781 36.7715 33.0568C36.7715 32.6355 36.4417 32.2915 36.0461 32.2915H32.5179C32.1222 32.2915 31.7925 32.6355 31.7925 33.0568C31.7925 33.4781 32.114 33.8134 32.5179 33.8134H33.5648L34.7189 36.1264L33.5318 37.4334C32.6498 36.7627 31.5534 36.3672 30.3746 36.3672C27.3988 36.3672 25 38.8693 25 41.9647C25 45.0601 27.4071 47.5623 30.3746 47.5623ZM38.6345 40.0989C38.5438 40.0989 38.4614 40.1075 38.3707 40.1161L36.8951 37.2356L42.0967 36.4703L38.7746 40.0989C38.7251 40.0989 38.6839 40.0989 38.6345 40.0989ZM35.7246 41.4316C35.6174 40.2966 35.1888 39.2562 34.5375 38.4222L35.4031 37.4849L37.1259 40.9243C37.0188 41.0791 36.9446 41.251 36.8869 41.4316H35.7246ZM30.3746 46.0318C28.2149 46.0318 26.4838 44.2261 26.4838 41.9647C26.4838 39.7205 28.2231 37.9063 30.3746 37.9063C31.166 37.9063 31.8914 38.147 32.5014 38.5597L30.5065 40.7523C30.4653 40.7437 30.4241 40.7437 30.3746 40.7437C29.7234 40.7437 29.2123 41.2682 29.2041 41.9647C29.1959 42.644 29.7152 43.1857 30.3746 43.1857C30.6879 43.1857 30.9764 43.0567 31.1825 42.8503H34.1748C33.7956 44.6732 32.2376 46.0318 30.3746 46.0318ZM47.0344 46.0318C44.8747 46.0318 43.1353 44.2261 43.1353 41.9647C43.1353 40.5288 43.8525 39.2648 44.9324 38.5426L45.9958 41.38C45.9133 41.552 45.8556 41.7498 45.8556 41.9647C45.8474 42.644 46.3667 43.1857 47.0344 43.1857C47.6856 43.1857 48.1967 42.644 48.1967 41.9647C48.1967 41.3886 47.834 40.9157 47.3229 40.7781L46.2678 37.9837C46.5151 37.9321 46.7706 37.9063 47.0344 37.9063C49.1777 37.9063 50.9253 39.7291 50.9253 41.9647C50.9253 44.2175 49.1777 46.0318 47.0344 46.0318ZM31.7678 41.4316L33.5071 39.5486C33.8863 40.0817 34.1501 40.7265 34.2408 41.4316H31.7678ZM38.6427 42.6096C38.3047 42.6096 38.0409 42.3344 38.0409 42.0163C38.0409 41.6724 38.313 41.38 38.6427 41.38C38.9724 41.38 39.228 41.6638 39.228 42.0163C39.228 42.343 38.9724 42.6096 38.6427 42.6096Z" fill="white"/>
<path d="M113.53 44.8154L117.723 47.1533C117.934 47.2676 118.109 47.3555 118.329 47.4082V32.8096L114.251 30.3486C113.987 30.1904 113.741 30.0762 113.53 30.0234V44.8154ZM106.736 45.9932C106.736 46.7578 107.22 47.1797 107.923 47.1797C108.178 47.1797 108.441 47.1006 108.74 46.9424L112.238 45.0439V30.1201C112.045 30.1992 111.816 30.2959 111.579 30.4365L107.606 32.6953C107.009 33.0293 106.736 33.5039 106.736 34.1719V45.9932ZM119.612 47.3643C119.718 47.3379 119.823 47.2939 119.92 47.2236L124.367 44.71C124.982 44.3672 125.264 43.9014 125.264 43.2334V31.4736C125.264 30.6738 124.771 30.2783 124.024 30.2783C123.752 30.2783 123.462 30.3574 123.154 30.5244L119.612 32.4932V47.3643Z" fill="white" fill-opacity="0.6"/>
<path d="M184.559 30.377C184.559 30.834 184.945 31.2207 185.385 31.2207H188.136L189.498 40.5195C189.691 41.8467 190.395 42.6553 191.739 42.6553H201.97C202.383 42.6553 202.761 42.3301 202.761 41.8643C202.761 41.4072 202.383 41.082 201.97 41.082H191.941C191.52 41.082 191.256 40.792 191.194 40.3438L191.054 39.4297H202.04C203.385 39.4297 204.097 38.6123 204.29 37.2764L204.949 32.873C204.967 32.7588 204.984 32.6094 204.984 32.5127C204.984 31.9941 204.624 31.6426 204.018 31.6426H189.938L189.797 30.6934C189.683 29.9287 189.375 29.542 188.399 29.542H185.385C184.945 29.542 184.559 29.9287 184.559 30.377ZM190.922 45.5293C190.922 46.3818 191.607 47.0674 192.46 47.0674C193.312 47.0674 193.998 46.3818 193.998 45.5293C193.998 44.6768 193.312 43.9912 192.46 43.9912C191.607 43.9912 190.922 44.6768 190.922 45.5293ZM199.034 45.5293C199.034 46.3818 199.729 47.0674 200.581 47.0674C201.434 47.0674 202.11 46.3818 202.11 45.5293C202.11 44.6768 201.434 43.9912 200.581 43.9912C199.729 43.9912 199.034 44.6768 199.034 45.5293Z" fill="white" fill-opacity="0.6"/>
<path d="M273.009 38.5752C274.925 38.5752 276.551 36.8701 276.551 34.6641C276.551 32.5107 274.916 30.8584 273.009 30.8584C271.093 30.8584 269.449 32.5371 269.458 34.6816C269.458 36.8701 271.084 38.5752 273.009 38.5752ZM267.524 46.749H278.476C279.926 46.749 280.427 46.3096 280.427 45.501C280.427 43.2422 277.562 40.1309 273 40.1309C268.447 40.1309 265.573 43.2422 265.573 45.501C265.573 46.3096 266.074 46.749 267.524 46.749Z" fill="white" fill-opacity="0.6"/>
<path d="M346.315 48.1816H355.685C357.574 48.1816 358.55 47.1885 358.55 45.29V37.4238H351.958C350.859 37.4238 350.332 36.8965 350.332 35.7979V29.1357H346.315C344.435 29.1357 343.45 30.1289 343.45 32.0361V45.29C343.45 47.1885 344.435 48.1816 346.315 48.1816ZM352.125 36.1406H358.462C358.409 35.7363 358.119 35.3584 357.662 34.8926L352.854 30.0234C352.415 29.5752 352.02 29.2764 351.615 29.2236V35.6309C351.624 35.9736 351.791 36.1406 352.125 36.1406ZM347.59 41.3174C347.212 41.3174 346.939 41.0449 346.939 40.6934C346.939 40.3418 347.212 40.0693 347.59 40.0693H354.437C354.797 40.0693 355.078 40.3418 355.078 40.6934C355.078 41.0449 354.797 41.3174 354.437 41.3174H347.59ZM347.59 44.6133C347.212 44.6133 346.939 44.3408 346.939 43.9893C346.939 43.6377 347.212 43.3652 347.59 43.3652H354.437C354.797 43.3652 355.078 43.6377 355.078 43.9893C355.078 44.3408 354.797 44.6133 354.437 44.6133H347.59Z" fill="white" fill-opacity="0.6"/>
<rect x="128.5" y="90" width="134" height="5" rx="2.5" fill="white"/>
<g filter="url(#filter1_d_1_2461)">
<path d="M17 20.198C17 15.4312 20.3646 11.3271 25.0388 10.3922L65.0388 2.39223C71.2268 1.15465 77 5.88758 77 12.198V39.802C77 44.5688 73.6354 48.6729 68.9612 49.6078L28.9612 57.6078C22.7732 58.8454 17 54.1124 17 47.802V20.198Z" fill="url(#paint2_linear_1_2461)"/>
<path d="M17.5 20.198C17.5 15.6696 20.6964 11.7706 25.1369 10.8825L65.1369 2.88252C71.0154 1.70682 76.5 6.2031 76.5 12.198V39.802C76.5 44.3304 73.3036 48.2294 68.8631 49.1175L28.8631 57.1175C22.9846 58.2932 17.5 53.7969 17.5 47.802V20.198Z" stroke="url(#paint3_linear_1_2461)" stroke-opacity="0.6" style="mix-blend-mode:overlay"/>
</g>
<g clip-path="url(#clip1_1_2461)">
<path d="M38.3746 38.5622C41.0455 38.5622 43.2712 36.5244 43.6751 33.8503H44.9858C45.2826 34.4694 45.9091 34.8993 46.6345 34.8993C47.6484 34.8993 48.4645 34.048 48.4645 32.999C48.4645 32.5347 48.2996 32.1048 48.0276 31.7695L52.0751 27.2553L52.3883 28.0894C50.7561 29.0438 49.6515 30.8752 49.6515 32.9647C49.6515 36.0601 52.0586 38.5708 55.0344 38.5708C57.9938 38.5708 60.3926 36.0601 60.3926 32.9647C60.3926 29.8692 57.9938 27.3671 55.0344 27.3671C54.581 27.3671 54.1359 27.4273 53.7155 27.5391L51.3826 21.374C51.2178 20.9269 50.921 20.7377 50.4017 20.7377H47.9287C47.5247 20.7377 47.195 21.0817 47.195 21.503C47.195 21.9157 47.5247 22.2596 47.9287 22.2596H50.1131C50.1873 22.2596 50.2038 22.2768 50.2286 22.3284L51.5475 25.8366L44.2192 26.92L43.1393 24.8134H44.0461C44.45 24.8134 44.7715 24.478 44.7715 24.0567C44.7715 23.6354 44.4417 23.2915 44.0461 23.2915H40.5179C40.1222 23.2915 39.7925 23.6354 39.7925 24.0567C39.7925 24.478 40.114 24.8134 40.5179 24.8134H41.5648L42.7189 27.1263L41.5318 28.4333C40.6498 27.7626 39.5534 27.3671 38.3746 27.3671C35.3988 27.3671 33 29.8692 33 32.9647C33 36.0601 35.4071 38.5622 38.3746 38.5622ZM46.6345 31.0988C46.5438 31.0988 46.4614 31.1074 46.3707 31.116L44.8951 28.2355L50.0967 27.4703L46.7746 31.0988C46.7251 31.0988 46.6839 31.0988 46.6345 31.0988ZM43.7246 32.4316C43.6174 31.2966 43.1888 30.2562 42.5375 29.4221L43.4031 28.4849L45.1259 31.9242C45.0188 32.079 44.9446 32.251 44.8869 32.4316H43.7246ZM38.3746 37.0317C36.2149 37.0317 34.4838 35.226 34.4838 32.9647C34.4838 30.7205 36.2231 28.9062 38.3746 28.9062C39.166 28.9062 39.8914 29.147 40.5014 29.5597L38.5065 31.7523C38.4653 31.7437 38.4241 31.7437 38.3746 31.7437C37.7234 31.7437 37.2123 32.2682 37.2041 32.9647C37.1959 33.6439 37.7152 34.1856 38.3746 34.1856C38.6879 34.1856 38.9764 34.0566 39.1825 33.8503H42.1748C41.7956 35.6731 40.2376 37.0317 38.3746 37.0317ZM55.0344 37.0317C52.8747 37.0317 51.1353 35.226 51.1353 32.9647C51.1353 31.5287 51.8525 30.2648 52.9324 29.5425L53.9958 32.38C53.9133 32.5519 53.8556 32.7497 53.8556 32.9647C53.8474 33.6439 54.3667 34.1856 55.0344 34.1856C55.6856 34.1856 56.1967 33.6439 56.1967 32.9647C56.1967 32.3886 55.834 31.9156 55.3229 31.7781L54.2678 28.9836C54.5151 28.932 54.7706 28.9062 55.0344 28.9062C57.1777 28.9062 58.9253 30.7291 58.9253 32.9647C58.9253 35.2174 57.1777 37.0317 55.0344 37.0317ZM39.7678 32.4316L41.5071 30.5485C41.8863 31.0816 42.1501 31.7265 42.2408 32.4316H39.7678ZM46.6427 33.6095C46.3047 33.6095 46.0409 33.3344 46.0409 33.0162C46.0409 32.6723 46.313 32.38 46.6427 32.38C46.9724 32.38 47.228 32.6637 47.228 33.0162C47.228 33.343 46.9724 33.6095 46.6427 33.6095Z" fill="white"/>
</g>
</g>
<defs>
<filter id="filter0_b_1_2461" x="-100" y="-100" width="590" height="303.5" filterUnits="userSpaceOnUse" color-interpolation-filters="sRGB">
<feFlood flood-opacity="0" result="BackgroundImageFix"/>
<feGaussianBlur in="BackgroundImageFix" stdDeviation="50"/>
<feComposite in2="SourceAlpha" operator="in" result="effect1_backgroundBlur_1_2461"/>
<feBlend mode="normal" in="SourceGraphic" in2="effect1_backgroundBlur_1_2461" result="shape"/>
</filter>
<filter id="filter1_d_1_2461" x="-13" y="-7.80536" width="120" height="115.611" filterUnits="userSpaceOnUse" color-interpolation-filters="sRGB">
<feFlood flood-opacity="0" result="BackgroundImageFix"/>
<feColorMatrix in="SourceAlpha" type="matrix" values="0 0 0 0 0 0 0 0 0 0 0 0 0 0 0 0 0 0 127 0" result="hardAlpha"/>
<feOffset dy="20"/>
<feGaussianBlur stdDeviation="15"/>
<feComposite in2="hardAlpha" operator="out"/>
<feColorMatrix type="matrix" values="0 0 0 0 0.0640972 0 0 0 0 0.0794837 0 0 0 0 0.108333 0 0 0 0.6 0"/>
<feBlend mode="normal" in2="BackgroundImageFix" result="effect1_dropShadow_1_2461"/>
<feBlend mode="normal" in="SourceGraphic" in2="effect1_dropShadow_1_2461" result="shape"/>
</filter>
<linearGradient id="paint0_linear_1_2461" x1="195" y1="-5" x2="195" y2="121" gradientUnits="userSpaceOnUse">
<stop stop-color="#363E51"/>
<stop offset="1" stop-color="#181C24"/>
</linearGradient>
<linearGradient id="paint1_linear_1_2461" x1="192.5" y1="-3.49999" x2="191" y2="41.5" gradientUnits="userSpaceOnUse">
<stop stop-color="white"/>
<stop offset="1" stop-opacity="0"/>
</linearGradient>
<linearGradient id="paint2_linear_1_2461" x1="20" y1="-3.18769e-07" x2="61.7906" y2="81.0429" gradientUnits="userSpaceOnUse">
<stop stop-color="#34C8E8"/>
<stop offset="1" stop-color="#4E4AF2"/>
</linearGradient>
<linearGradient id="paint3_linear_1_2461" x1="17" y1="0" x2="51.0751" y2="72.2302" gradientUnits="userSpaceOnUse">
<stop stop-color="white"/>
<stop offset="1"/>
</linearGradient>
<clipPath id="clip0_1_2461">
<rect width="390" height="103.5" fill="white"/>
</clipPath>
<clipPath id="clip1_1_2461">
<rect width="28" height="28" fill="white" transform="translate(33 16)"/>
</clipPath>
</defs>
</svg>
