<svg width="16" height="17" viewBox="0 0 16 17" fill="none" xmlns="http://www.w3.org/2000/svg">
<path d="M14.9963 7.74268H8.99634V1.74268C8.99634 1.47746 8.89098 1.22311 8.70344 1.03557C8.51591 0.848033 8.26155 0.742676 7.99634 0.742676C7.73112 0.742676 7.47677 0.848033 7.28923 1.03557C7.1017 1.22311 6.99634 1.47746 6.99634 1.74268V7.74268H0.996338C0.731121 7.74268 0.476768 7.84803 0.289231 8.03557C0.101695 8.22311 -0.00366211 8.47746 -0.00366211 8.74268C-0.00366211 9.00789 0.101695 9.26225 0.289231 9.44978C0.476768 9.63732 0.731121 9.74268 0.996338 9.74268H6.99634V15.7427C6.99634 16.0079 7.1017 16.2622 7.28923 16.4498C7.47677 16.6373 7.73112 16.7427 7.99634 16.7427C8.26155 16.7427 8.51591 16.6373 8.70344 16.4498C8.89098 16.2622 8.99634 16.0079 8.99634 15.7427V9.74268H14.9963C15.2616 9.74268 15.5159 9.63732 15.7034 9.44978C15.891 9.26225 15.9963 9.00789 15.9963 8.74268C15.9963 8.47746 15.891 8.22311 15.7034 8.03557C15.5159 7.84803 15.2616 7.74268 14.9963 7.74268Z" fill="white"/>
</svg>
